# xmcd CD Database Entry
#
# Track frame offsets:
# 150
# 21845
# 44337
# 73115
# 104260
# 124537
# 146097
# 162987
#
# Disc length: 2525 seconds
#
# Revision: 1
# Processed by: cddbd v1.4PL0 Copyright (c) Steve Scherf et al.
# Submitted via: tcd 2.0b
#
DISCID=6d09db08
DTITLE=Ukendt - Ukendt
DYEAR=1900
DGENRE=
TTITLE0=Spor 1
TTITLE1=Spor 2
TTITLE2=Spor 3
TTITLE3=Spor 4
TTITLE4=Spor 5
TTITLE5=Spor 6
TTITLE6=Spor 7
TTITLE7=Spor 8
EXTD=
EXTT0=
EXTT1=
EXTT2=
EXTT3=
EXTT4=
EXTT5=
EXTT6=
EXTT7=
PLAYORDER=
